# xmcd
#
# Track frame offsets: 
#        150
#        11107
#        23266
#        32874
#        48989
#        59429
#        79260
#        98748
#        117834
#        131199
#        143410
#        158298
#        178916
#        187912
#        194301
#        207679
#        217903
#        228299
#        245304
#        256695
#        270326
#        284997
#        297772
#        305291
#        315206
#
# Disc length: 4355 seconds
#
# Revision: 0
# Processed by: cddbd v1.5.2PL0 Copyright (c) Steve Scherf et al.
# Submitted via: ExactAudioCopy v0.99pb3
#
DISCID=54110119
DTITLE=Young Fresh Fellows - Beans and Tolerance plus
DYEAR=1990
DGENRE=Ambient
TTITLE0=Rock and Roll Guitars
TTITLE1=Fruitbasket Blues
TTITLE2=Vacation Rock
TTITLE3=Nino Ferrar in Trouble
TTITLE4=Stop Breathing, You're Foggin' Up My Mind
TTITLE5=Gorilla
TTITLE6=Shake Your Love
TTITLE7=Silhouette
TTITLE8=Women's Prison
TTITLE9=After Eggs
TTITLE10=Tell it to the Raven
TTITLE11=Whole Lotta Pappies
TTITLE12=I'm an Artiste on Frontier
TTITLE13=My Boyfriend's in Killdozer
TTITLE14=Divorce 9
TTITLE15=Halloween
TTITLE16=Motorbroke
TTITLE17=Equator Blues
TTITLE18=Two Guitars, Bass and Drums
TTITLE19=Someone I Care About
TTITLE20=Don't Blame it on Yoko
TTITLE21=With a Big Book
TTITLE22=Sick and Tired of Me
TTITLE23=They Raided the Joint
TTITLE24=Booze Party
EXTD=
EXTT0=
EXTT1=
EXTT2=
EXTT3=
EXTT4=
EXTT5=
EXTT6=
EXTT7=
EXTT8=
EXTT9=
EXTT10=
EXTT11=
EXTT12=
EXTT13=
EXTT14=
EXTT15=
EXTT16=
EXTT17=
EXTT18=
EXTT19=
EXTT20=
EXTT21=
EXTT22=
EXTT23=
EXTT24=
PLAYORDER=
